PathFileType  4	(X/Y/Z)
DataRate	CameraRate	NumFrames	NumMarkers	Units	OrigDataRate	OrigDataStartFrame	OrigNumFrames
	100.0 	100.0	5	50	mm	100.0	166	265
Frame#	Time	R.Shoulder			R.Clavicle			R.Bicep			R.Elbow			R.Forearm			R.Wrist			L.Shoulder			L.Clavicle			L.Scapula			L.Bicep			L.Elbow			L.Forearm			L.Wrist			R.ASIS			R.Iliac			S2			L.Iliac			L.ASIS			R.TH1			R.TH2			R.TH3			R.Knee			R.SH1			R.SH2			R.SH3			R.SH4			R.Ankle			R.Heel			R.MT5			L.TH1			L.TH2			L.TH3			L.TH4			L.Knee			L.SH1			L.SH2			L.SH3			L.Ankle			L.Heel			L.MT5			R.MKnee			L.MKnee			R.MAnkle			L.MAnkle			R.MElbow			L.MElbow			R.PSIS			L.PSIS			R_HJC			L_HJC			
		X1	Y1	Z1	X2	Y2	Z2	X3	Y3	Z3	X4	Y4	Z4	X5	Y5	Z5	X6	Y6	Z6	X7	Y7	Z7	X8	Y8	Z8	X9	Y9	Z9	X10	Y10	Z10	X11	Y11	Z11	X12	Y12	Z12	X13	Y13	Z13	X14	Y14	Z14	X15	Y15	Z15	X16	Y16	Z16	X17	Y17	Z17	X18	Y18	Z18	X19	Y19	Z19	X20	Y20	Z20	X21	Y21	Z21	X22	Y22	Z22	X23	Y23	Z23	X24	Y24	Z24	X25	Y25	Z25	X26	Y26	Z26	X27	Y27	Z27	X28	Y28	Z28	X29	Y29	Z29	X30	Y30	Z30	X31	Y31	Z31	X32	Y32	Z32	X33	Y33	Z33	X34	Y34	Z34	X35	Y35	Z35	X36	Y36	Z36	X37	Y37	Z37	X38	Y38	Z38	X39	Y39	Z39	X40	Y40	Z40	X41	Y41	Z41	X42	Y42	Z42	X43	Y43	Z43	X44	Y44	Z44	X45	Y45	Z45	X46	Y46	Z46	X47	Y47	Z47	X48	Y48	Z48	X49	Y49	Z49	X50	Y50	Z50	

166	1.65000	269.149	7.354	1423.656	331.076	168.103	1411.700	292.035	-7.217	1248.565	218.182	-51.792	1112.223	315.585	-45.815	995.347	320.492	-84.585	891.836	213.122	393.095	1428.291	334.181	233.127	1413.599	126.729	251.125	1313.555	256.777	399.755	1258.601	178.787	426.026	1120.573	260.772	441.140	1007.444	249.974	465.797	888.364	357.024	50.308	959.326	261.738	34.385	1045.214	175.395	201.820	991.342	280.603	358.840	1037.851	372.780	328.290	952.253	369.234	72.501	717.826	355.289	82.267	632.938	242.567	-12.113	641.215	223.642	19.458	496.631	277.099	49.254	360.200	269.290	51.966	286.924	176.419	-5.604	366.810	167.675	-1.176	293.023	209.222	34.288	99.944	144.631	95.121	54.190	333.039	4.879	35.610	370.766	349.086	746.097	365.494	338.236	661.766	227.883	397.934	749.971	224.686	385.151	662.330	233.710	360.087	501.482	264.075	354.000	378.043	264.018	354.881	302.529	149.222	363.892	301.043	211.514	350.174	95.019	149.559	283.988	42.312	324.144	386.794	35.269	217.416	168.974	500.549	236.829	211.516	501.912	246.916	129.508	116.425	242.028	256.451	109.826	234.351	54.494	1091.733	236.006	327.204	1098.895	176.196	149.877	1006.143	183.159	250.977	1003.656	275.273	89.480	871.524	284.241	299.044	866.870
167	1.66000	269.130	7.328	1423.583	331.122	168.013	1411.643	292.035	-7.217	1248.565	218.182	-51.792	1112.223	315.586	-45.663	995.298	320.237	-85.167	891.933	213.691	393.082	1428.215	334.352	233.179	1413.528	126.729	251.125	1313.555	256.849	399.441	1258.742	178.846	425.780	1120.486	261.145	441.117	1007.383	249.974	465.797	888.364	357.230	50.451	959.173	262.726	33.956	1045.102	175.901	201.491	990.893	280.764	358.916	1038.006	372.789	328.071	952.339	369.419	72.458	717.864	355.305	82.137	632.888	242.672	-12.073	641.111	223.642	19.458	496.631	277.258	49.335	360.315	269.290	51.966	286.924	176.519	-5.650	366.891	167.827	-1.112	293.114	209.427	34.379	99.918	144.631	95.121	54.190	333.039	4.879	35.610	370.766	349.086	746.097	365.668	338.041	661.791	227.883	397.934	749.971	224.534	385.096	662.398	233.710	360.087	501.482	264.095	353.957	378.093	263.951	354.705	302.568	149.248	363.756	300.956	211.545	349.945	94.886	149.521	283.934	42.412	324.144	386.794	35.269	217.644	169.000	500.562	236.829	211.516	501.912	247.095	129.284	116.396	242.028	256.451	109.826	234.351	54.494	1091.733	236.006	327.204	1098.895	176.492	149.718	1006.028	183.358	251.075	1003.602	275.765	89.478	871.356	284.464	299.058	866.857
168	1.67000	269.130	7.328	1423.583	331.122	168.013	1411.643	291.973	-7.308	1248.448	218.243	-51.696	1112.150	315.586	-45.663	995.298	320.237	-85.167	891.933	213.979	393.078	1428.313	334.755	233.273	1413.476	126.830	251.118	1313.641	256.673	399.342	1258.388	178.846	425.780	1120.486	261.145	441.117	1007.383	250.060	465.716	888.167	357.225	50.498	959.057	263.313	33.935	1045.323	176.018	201.505	990.957	280.595	358.915	1037.879	372.777	328.076	952.172	369.630	72.509	717.919	355.518	82.120	632.823	242.672	-12.073	641.111	223.642	19.458	496.631	277.118	49.173	360.123	269.219	51.926	286.976	176.540	-5.561	366.955	167.832	-1.259	293.135	209.427	34.379	99.918	144.719	95.349	54.198	333.153	4.798	35.794	371.041	349.185	745.926	365.668	338.041	661.791	227.893	397.829	750.008	224.982	385.051	662.273	233.710	360.087	501.482	264.126	353.938	378.010	264.036	354.738	302.590	149.290	363.853	301.231	211.683	349.876	94.906	149.671	283.923	42.287	324.144	386.794	35.269	217.894	168.764	500.517	236.829	211.516	501.912	247.090	129.371	116.364	242.400	256.498	109.704	234.744	54.544	1091.569	236.239	327.172	1098.733	176.492	149.718	1006.028	183.474	251.066	1003.679	275.795	89.428	871.387	284.302	299.012	866.761
169	1.68000	269.358	7.356	1423.674	331.177	168.053	1411.746	292.189	-7.477	1248.147	218.264	-51.685	1112.209	315.932	-45.407	995.133	320.237	-85.167	891.933	214.085	393.041	1428.177	334.755	233.273	1413.476	126.830	251.118	1313.641	257.196	399.575	1258.730	178.993	425.724	1120.437	261.145	441.117	1007.383	250.060	465.716	888.167	357.225	50.498	959.057	263.313	33.935	1045.323	176.242	201.607	990.907	280.787	358.781	1037.964	372.889	328.027	952.302	369.606	72.333	717.824	355.518	82.120	632.823	242.672	-12.073	641.111	223.642	19.458	496.631	277.118	49.173	360.123	269.290	51.966	286.924	176.540	-5.561	366.955	167.980	-1.341	293.101	209.427	34.379	99.918	144.631	95.121	54.190	333.035	4.714	35.725	371.089	349.219	745.864	365.694	337.971	661.610	228.060	397.711	750.002	224.919	385.020	662.470	233.925	360.050	501.421	264.095	353.957	378.093	264.128	354.877	302.553	149.287	363.906	301.216	211.514	350.174	95.019	149.559	283.988	42.312	324.144	386.794	35.269	217.894	168.764	500.517	237.128	211.408	501.964	247.090	129.371	116.364	242.488	256.529	109.826	234.930	54.686	1091.594	236.239	327.172	1098.733	176.561	149.866	1006.077	183.474	251.066	1003.679	275.858	89.471	871.387	284.481	299.052	866.834
170	1.69000	269.611	7.256	1423.484	331.354	168.030	1411.838	292.387	-7.545	1248.073	218.341	-51.553	1112.219	316.022	-45.234	995.173	320.333	-85.053	891.884	214.091	393.101	1428.255	334.886	233.233	1413.497	126.830	251.118	1313.641	257.196	399.575	1258.730	179.024	425.608	1120.373	261.290	441.128	1007.313	250.060	465.716	888.167	357.494	50.619	959.172	263.313	33.935	1045.323	176.242	201.607	990.907	281.004	358.708	1037.823	372.777	328.076	952.172	369.606	72.333	717.824	355.518	82.120	632.823	242.672	-12.073	641.111	223.642	19.458	496.631	277.118	49.173	360.123	269.508	52.149	286.953	176.683	-5.556	366.881	168.035	-1.280	293.079	209.275	34.465	100.019	144.784	95.477	54.059	333.035	4.714	35.725	371.089	349.219	745.864	365.693	338.146	661.630	228.191	397.642	750.179	224.982	385.051	662.273	233.925	360.050	501.421	264.144	354.029	378.018	264.286	354.917	302.631	149.519	363.971	301.216	211.567	350.039	94.976	149.516	283.980	42.391	324.144	386.794	35.269	217.969	168.921	500.506	236.829	211.516	501.912	247.045	129.437	116.452	242.488	256.529	109.826	235.082	54.708	1091.458	236.323	327.039	1098.770	176.578	149.786	1006.248	183.805	251.228	1003.589	275.932	89.425	871.432	284.528	299.005	866.755
